<svg viewBox="0 0 410 141" preserveAspectRatio="xMidYMid meet" class="css-g5ufxp" id="fffbbfaf">
	<defs id="SvgjsDefs1015"></defs>
	<g id="SvgjsG1016" featurekey="symbolGroupContainer" transform="matrix(1,0,0,1,0,0)" fill="#111">
		<rect xmlns="http://www.w3.org/2000/svg" width="140" height="141" rx="10" ry="10"></rect>
	</g>
	<g id="SvgjsG1017" featurekey="symbolFeature-0"
		transform="matrix(1.1194179058074951,0,0,1.1194179058074951,12.469277542814924,14.35449414605571)" fill="#fff">
		<path xmlns="http://www.w3.org/2000/svg"
			d="M49.209,52.805C46.508,40.4,69.192,40.832,63.481,56.602c-3.901,10.773-26.506,9.871-24.065-6.935  c2.167-14.917,23.833-18.583,31.483-6.463c5.959,9.442,0.123,24.496-11.716,27.942C47.875,74.438,25.57,69.658,29.69,46.724  C31.828,34.813,43,28.833,53.562,28.375c5.344-0.232,4.354,3.112,2.561,3.275c-13.563,1.234-20.689,7.223-22.251,16.268  C30.75,66,49.95,69.785,58.406,67.167c8.426-2.608,13.943-13.675,9.614-20.824c-5.354-8.843-21.205-9.234-24.438,3.667  c-2.253,8.993,13.068,12.599,16.276,5.786c4.808-10.212-8.888-10.883-7.359-3.688C52.908,54.03,49.688,55,49.209,52.805z   M78.043,15.018c-1.242,1.188-5.116,5.639-6.333,6.815c-1.406,1.36-7.118,4.328-8.5,5.625c-0.922,0.866,0.594,2.594,1.666,2.602  c3.209,0.023,6.306-2.762,7.709-3.894c1.025-0.828,2.384-2.164,3.291-3.167c1.309-1.448,4.112-4.053,4.209-5.958  C80.206,14.647,78.445,14.633,78.043,15.018z M95.215,50.397C89.206,49.339,91.227,50,85.834,50c-1.325,0-7.271-0.906-9.032,1.599  c-0.739,1.052-1.495,3.418,4.907,2.984c6.676-0.452,7.479-0.668,10.916-0.333C95.188,54.5,97.295,50.764,95.215,50.397z   M82.167,86.667c1.25-3-3.378-4.235-6-6.333c-2.823-2.259-4.53-4.824-5.834-5.167C67.306,74.369,65.5,75.5,66.5,77  c1.546,2.319,8.583,7.864,9.896,8.583S81.267,88.829,82.167,86.667z M43.604,90.966C44.062,89.633,50,78.5,47.181,77.498  c-1.448-0.515-1.383-0.288-1.869,0.064c-1.05,0.763-2.301,2.242-2.75,3.062c-1.211,2.209-1.688,5-2.875,7.438  c-0.705,1.447-3.197,6.636-1.562,6.859C41.78,95.422,43.087,92.473,43.604,90.966z M19.094,68.359  c-1.531,0.734-2.849,1.607-4.281,2.328c-1.713,0.862-3.002,2.287-4.569,3.373c-0.516,0.358-1.121,0.671-1.614,1.104  c-2.292,2.012,0.823,2.27,3.135,2.082s10.844-5.406,13.562-7.844s-1.362-2.444-2.161-2.373C22.16,67.12,20.004,67.923,19.094,68.359  z M23.015,48.173c-0.956-0.249-2.804-1.363-3.734-1.58c-2.141-0.499-2.781-0.5-5.656-1.156c-1.438-0.328-5.438-1.688-6.72,0.23  c-0.672,1.006,0.595,3.363,3.251,3.613S16.875,50,20.375,51.594C24.749,53.585,25.469,48.812,23.015,48.173z M18,16.167  c-0.708-0.514-3.833,0.656-2.083,3.5s5.427,7.612,8.458,10.393s4.49,3.434,5.374,1.703c0.468-0.917-1.172-2.235-1.75-3.012  c-1.837-2.472-3.896-4.991-5.917-7.25c-1.577-1.763-1.457-2.066-1.5-2C20.583,19.5,18.888,16.812,18,16.167z M49.412,22.185  c0.565-0.87,0.149-7.158,0.125-10.563c-0.011-1.48,0.755-4.413,0.256-5.1c-0.438-0.603-2.376-3.292-3.167,0.542  c-0.918,4.452-1.116,7.057-0.872,12.475C45.804,20.666,47.224,25.553,49.412,22.185z">
		</path>
	</g>
	<g id="SvgjsG1018" featurekey="vMvB0T-0"
		transform="matrix(4.352367877960205,0,0,4.352367877960205,155.21239584378628,-0.9846732546348349)" fill="#111">
		<path
			d="M1.1 19.96 l1.06 -13.6 q0.88 -0.16 2.08 -0.16 t2.1 0.16 l1.18 4.9 q0.7 3.32 0.74 3.62 l0.14 0 q0.08 -0.5 0.74 -3.62 l1.2 -4.9 q0.88 -0.16 2.08 -0.16 t2.1 0.16 l1.06 13.6 q-0.62 0.16 -1.53 0.16 t-1.49 -0.1 l-0.32 -5.56 q-0.14 -3.32 -0.16 -4.62 l-0.12 0 l-1.98 8.14 q-0.72 0.12 -1.65 0.12 t-1.65 -0.12 l-1.96 -8.14 l-0.14 0 q0 1.78 -0.16 4.62 l-0.3 5.56 q-0.58 0.1 -1.49 0.1 t-1.53 -0.16 z M21.32 15.96 l-0.02 1.44 l0 0.02 q0.92 -0.04 1.48 -0.04 l4.64 0 q0 0.74 -0.06 1.14 q-0.24 1.54 -2.04 1.54 l-5.32 0 q-0.86 0 -1.35 -0.5 t-0.49 -1.36 l0 -11.72 l0.14 -0.14 l8.62 0 q0.12 0.58 0.12 1.26 t-0.28 1.42 l-5.46 0 l0.02 1.44 l0 1.4 q0.52 -0.02 1.36 -0.02 l3.06 0 q0.18 0.56 0.18 1.28 t-0.18 1.32 l-4.42 0 l0 1.52 z M38.480000000000004 19.12 q-0.64 0.52 -1.68 0.76 t-2.3 0.24 q-0.62 0 -1.79 -0.02 t-2.93 -0.06 l-0.14 -0.14 l0 -13.46 l0.14 -0.14 q1.16 -0.04 2.41 -0.06 t2.63 -0.02 q1.7 0 2.84 0.54 t1.82 1.48 t0.96 2.21 t0.28 2.73 q0 2 -0.46 3.46 t-1.78 2.48 z M34.8 17.62 q2.64 0 2.64 -4.44 q0 -4.46 -2.64 -4.46 l-1.13 0 t-0.85 -0.02 l0 8.94 q0.36 -0.02 0.85 -0.02 l1.13 0 z M43.12 6.300000000000001 q1.62 -0.04 2.77 -0.06 t1.85 -0.02 q2.18 0 3.43 0.91 t1.25 2.73 q0 0.88 -0.5 1.64 t-1.28 1.1 q0.5 0.16 0.95 0.51 t0.77 0.82 t0.51 1.02 t0.19 1.13 q0 2.06 -1.31 3.05 t-3.71 0.99 q-0.74 0 -1.96 -0.02 t-2.96 -0.06 l-0.14 -0.14 l0 -13.46 z M47.8 13.98 l-1.66 0 l0 3.9 q0.52 -0.02 1.17 0 t1.21 -0.1 t0.94 -0.58 t0.38 -1.28 q0 -0.78 -0.49 -1.36 t-1.55 -0.58 z M46.14 8.48 l0 3.22 l1.42 0 q0.96 0 1.35 -0.47 t0.39 -1.15 t-0.4 -1.13 t-1.34 -0.45 l-0.81 0 t-0.61 -0.02 z M55.32000000000001 20 l0 -13.66 q0.62 -0.12 1.6 -0.12 t1.62 0.12 l0 13.66 q-0.64 0.12 -1.62 0.12 t-1.6 -0.12 z">
		</path>
	</g>
	<g id="SvgjsG1019" featurekey="sloganFeature-0"
		transform="matrix(0.5630651712417603,0,0,0.5630651712417603,159.71846741385755,103.7989745277791)" fill="#111">
		<path
			d="M4.833 11.3334 c2.3754 0.018398 4.3036 1.954 4.3036 4.333 c0 2.3882 -1.943 4.333 -4.333 4.333 c-1.7829 0 -3.3598 -1.069 -4.022 -2.7268 l0.3459 -0.16008 l0.045996 -0.018398 c0.59062 1.5014 2.0166 2.4728 3.6284 2.4728 c2.1508 0 3.9006 -1.7498 3.9006 -3.9006 s-1.7498 -3.9006 -3.9006 -3.9006 l0 -0.0055273 c-0.92732 -0.016563 -1.678 -0.7746 -1.678 -1.7075 c0 -0.94204 0.76724 -1.7093 1.7093 -1.7093 c0.69732 0 1.2971 0.41398 1.5621 1.0138 l-0.39192 0.18215 c-0.19688 -0.45078 -0.64582 -0.76358 -1.1702 -0.76358 c-0.70286 0 -1.2769 0.57406 -1.2769 1.2788 s0.57222 1.2788 1.2769 1.2788 z M2.8994 10.0546 c0 1.0672 0.86842 1.9338 1.9337 1.9356 c2.0148 0.016563 3.6468 1.6596 3.6468 3.6762 c0 2.0276 -1.6504 3.678 -3.678 3.678 c-1.5161 0 -2.8776 -0.9402 -3.426 -2.3478 l0.39192 -0.18215 c0.47838 1.2567 1.6872 2.0976 3.034 2.0976 c1.7903 0 3.2456 -1.4554 3.2456 -3.2456 s-1.4554 -3.2456 -3.2456 -3.2456 l0 -0.0018359 c-1.2898 -0.016563 -2.3348 -1.0708 -2.3348 -2.3644 c0 -1.3045 1.0616 -2.3662 2.3662 -2.3662 c0.9402 0 1.7774 0.56302 2.1546 1.3947 l-0.39192 0.18215 c-0.30542 -0.68078 -0.99356 -1.1445 -1.7626 -1.1445 c-1.0672 0 -1.9338 0.8666 -1.9338 1.9338 z M7.582 8.809 l-0.39192 0.18398 c-0.41398 -0.9126 -1.3376 -1.5253 -2.357 -1.5253 c-1.4278 0 -2.5888 1.161 -2.5888 2.5888 s1.161 2.5888 2.5888 2.5888 c1.6504 0.016563 2.9898 1.3634 2.9898 3.0194 c0 1.6651 -1.3542 3.0212 -3.0212 3.0212 c-1.2585 0 -2.392 -0.80038 -2.828 -1.9687 l0.39376 -0.18215 c0.3643 1.0175 1.345 1.7185 2.4342 1.7185 c1.4278 0 2.5888 -1.161 2.5888 -2.5888 s-1.161 -2.5888 -2.5888 -2.5888 l0 -0.0018359 c-1.6504 -0.016563 -2.9898 -1.3634 -2.9898 -3.0194 c0 -1.6651 1.3542 -3.0212 3.0212 -3.0212 c1.1886 0 2.265 0.71388 2.7488 1.7755 z M8.1798 8.533 l-0.39376 0.18031 c-0.52254 -1.15 -1.678 -1.9043 -2.955 -1.9043 c-1.7903 0 -3.2456 1.4554 -3.2456 3.2456 s1.4554 3.2456 3.2456 3.2456 l0 0.0018359 c1.2898 0.016563 2.3348 1.0708 2.3348 2.3644 c0 1.3045 -1.0616 2.3662 -2.3662 2.3662 c-1.0101 0 -1.9043 -0.65318 -2.2318 -1.5897 l0.39376 -0.18215 c0.25574 0.78748 0.99908 1.3395 1.8399 1.3395 c1.0672 0 1.9338 -0.8666 1.9338 -1.9338 s-0.8666 -1.9338 -1.9338 -1.9338 c-2.0148 -0.016563 -3.6468 -1.6596 -3.6468 -3.6762 c0 -2.0276 1.6504 -3.678 3.678 -3.678 c1.4462 0 2.7526 0.85374 3.3468 2.1546 z M4.8018 14.387599999999999 c-2.3736 -0.016563 -4.3018 -1.954 -4.3018 -4.3312 c0 -2.39 1.943 -4.333 4.333 -4.333 c1.7148 0 3.2346 0.98804 3.9394 2.5354 l-0.39192 0.18215 c-0.63478 -1.3947 -2.0038 -2.2852 -3.5474 -2.2852 c-2.1508 0 -3.9006 1.7498 -3.9006 3.9006 s1.7498 3.9006 3.9006 3.9006 l0 0.0018359 c0.92732 0.016563 1.678 0.7746 1.678 1.7075 c0 0.94204 -0.7654 1.7093 -1.7093 1.7093 c-0.77094 0 -1.4204 -0.50598 -1.6339 -1.2107 l0.39558 -0.18398 c0.13984 0.5575 0.64032 0.96228 1.2383 0.96228 c0.70468 0 1.2788 -0.57222 1.2788 -1.2769 s-0.57406 -1.2788 -1.2788 -1.2788 z M14.7604 20 l-0.4324 0 l0 -2.9476 l0.4324 0 l0 2.9476 z M15.4282 20 l-0.4324 0 l0 -2.9476 l0.4324 0 l0 2.9476 z M16.0944 20 l-0.4324 0 l0 -2.9476 l0.4324 0 l0 2.9476 z M16.7604 20 l-0.4324 0 l0 -2.9476 l0.4324 0 l0 2.9476 z M17.4282 20 l-0.4324 0 l0 -2.9476 l0.4324 0 l0 2.9476 z M25.8634 12.8292 l0.3919 -0.18031 l3.4076 7.3506 l-0.47654 0 z M26.4724 12.5588 l0.39192 -0.18031 l3.5326 7.621 l-0.47654 0 z M27.055799999999998 12.2422 l0.39376 -0.18215 l3.6836 7.9392 l-0.47654 0 z M23.048379999999998 19.99939454 l-0.43238 0 l0 -13.971 l0.43238 0 l0 13.971 z M23.7144 19.99939454 l-0.43238 0 l0 -13.971 l0.43238 0 l0 13.971 z M24.3824 19.99939454 l-0.43238 0 l0 -13.971 l0.43238 0 l0 13.971 z M25.0484 19.99939454 l-0.43238 0 l0 -13.971 l0.43238 0 l0 13.971 z M29.284 14.428 l2.5852 5.5732 l-0.47654 0 l-3.7498 -8.0884 l0.2208 -0.16191 c0.39558 -0.27784 0.63662 -0.73414 0.63662 -1.218 c0 -0.81876 -0.66606 -1.483 -1.483 -1.483 l-1.3008 0 l0 4.0184 l3.2126 6.931 l-0.47654 0 l-2.736 -5.9026 l0 5.9025 l-0.43238 0 l0 -13.971 l1.7314 0 c2.4858 0 4.5078 2.022 4.5078 4.5078 c0 1.6063 -0.85556 3.0818 -2.2392 3.8914 z M28.1818 12.0472 l0.091992 0.2024 c0.54278 -0.39926 0.87212 -1.0395 0.87212 -1.7166 c0 -1.1757 -0.95676 -2.1306 -2.1306 -2.1306 l-1.3008 0 l0 0.21527 l1.3008 0 c1.0561 0 1.9154 0.85924 1.9154 1.9154 c0 0.5943 -0.27966 1.1518 -0.74884 1.5143 z M28.459600000000002 12.6488 l0.090136 0.19867 c0.77278 -0.51334 1.2438 -1.3836 1.2438 -2.3146 c0 -1.5327 -1.2456 -2.7782 -2.7782 -2.7782 l-1.3008 0 l0 0.21527 l1.3008 0 c1.4131 0 2.563 1.15 2.563 2.563 c0 0.8427 -0.42502 1.6412 -1.1187 2.116 z M28.735599999999998 13.241399999999999 l0.092012 0.19691 c1.0028 -0.62558 1.6173 -1.7222 1.6173 -2.907 c0 -1.8878 -1.5382 -3.426 -3.4278 -3.426 l-1.3008 0 l0 0.21527 l1.3008 0 c1.77 0 3.2106 1.4407 3.2106 3.2106 c0 1.1003 -0.56854 2.1214 -1.4922 2.7102 z M29.0098 13.8338 l0.093848 0.20056 c1.2291 -0.73598 1.989 -2.0608 1.989 -3.4978 c0 -2.2466 -1.8289 -4.0754 -4.0754 -4.0754 l-1.3008 0 l0 0.21344 l1.3008 0 c2.127 0 3.8584 1.7314 3.8584 3.8584 c0 1.3523 -0.71204 2.6016 -1.8657 3.3008 z M37.4964 20 l-0.4324 0 l0 -2.9476 l0.4324 0 l0 2.9476 z M38.1642 20 l-0.4324 0 l0 -2.9476 l0.4324 0 l0 2.9476 z M38.8304 20 l-0.4324 0 l0 -2.9476 l0.4324 0 l0 2.9476 z M39.4964 20 l-0.4324 0 l0 -2.9476 l0.4324 0 l0 2.9476 z M40.1642 20 l-0.4324 0 l0 -2.9476 l0.4324 0 l0 2.9476 z M52.28960000000001 5.6850000000000005 c4.046 0 7.3376 3.2898 7.3376 7.3376 c0 4.046 -3.2916 7.3376 -7.3376 7.3376 s-7.3376 -3.2916 -7.3376 -7.3376 s3.2916 -7.3376 7.3376 -7.3376 z M52.28960000000001 19.9258 c3.8068 0 6.9052 -3.0984 6.9052 -6.9052 s-3.0984 -6.9052 -6.9052 -6.9052 s-6.9052 3.0966 -6.9052 6.9052 s3.0984 6.9052 6.9052 6.9052 z M52.28960000000001 6.332000000000001 c3.689 0 6.69 3.001 6.6882 6.6882 c0 3.6872 -3.001 6.6882 -6.6882 6.6882 s-6.6882 -2.999 -6.6882 -6.6882 c0 -3.6872 2.999 -6.6882 6.6882 -6.6882 z M52.28960000000001 19.27814 c3.4498 0 6.2576 -2.8078 6.2558 -6.2558 c0 -3.4518 -2.8058 -6.2576 -6.2558 -6.2576 s-6.2576 2.8078 -6.2576 6.2576 s2.8078 6.2558 6.2576 6.2558 z M52.28960000000001 6.98 c3.332 0 6.0404 2.7102 6.0404 6.0404 s-2.7102 6.0404 -6.0404 6.0404 s-6.0404 -2.7102 -6.0404 -6.0404 s2.7102 -6.0404 6.0404 -6.0404 z M52.28960000000001 18.6287 c3.093 0 5.608 -2.5152 5.608 -5.608 s-2.5152 -5.608 -5.608 -5.608 s-5.608 2.5152 -5.608 5.608 s2.5152 5.608 5.608 5.608 z M52.28960000000001 7.628 c2.9734 0 5.3928 2.4196 5.3928 5.3928 s-2.4196 5.3928 -5.3928 5.3928 s-5.3928 -2.4196 -5.3928 -5.3928 s2.4196 -5.3928 5.3928 -5.3928 z M52.28960000000001 17.981 c2.736 0 4.9604 -2.2244 4.9604 -4.9604 s-2.2244 -4.9604 -4.9604 -4.9604 s-4.9604 2.2244 -4.9604 4.9604 s2.2244 4.9604 4.9604 4.9604 z M52.28960000000001 8.277 c2.6164 0 4.7452 2.127 4.7434 4.7434 c0 2.6146 -2.127 4.7434 -4.7434 4.7434 s-4.7452 -2.127 -4.7452 -4.7434 c0 -2.6146 2.1288 -4.7434 4.7452 -4.7434 z M52.28960000000001 17.3334 c2.379 0 4.3128 -1.9338 4.3128 -4.3128 s-1.9356 -4.3128 -4.3128 -4.3128 s-4.3128 1.9338 -4.3128 4.3128 s1.9356 4.3128 4.3128 4.3128 z M64.8524 20 l-0.4324 0 l0 -2.9476 l0.4324 0 l0 2.9476 z M65.5202 20 l-0.4324 0 l0 -2.9476 l0.4324 0 l0 2.9476 z M66.1864 20 l-0.4324 0 l0 -2.9476 l0.4324 0 l0 2.9476 z M66.8524 20 l-0.4324 0 l0 -2.9476 l0.4324 0 l0 2.9476 z M67.5202 20 l-0.4324 0 l0 -2.9476 l0.4324 0 l0 2.9476 z M82.46838 19.99939454 l-0.43238 0 l0 -13.978 l0.43238 0 l0 13.978 z M83.1363 19.99939454 l-0.43238 0 l0 -13.978 l0.43238 0 l0 13.978 z M83.8024 19.99939454 l-0.43238 0 l0 -13.978 l0.43238 0 l0 13.978 z M84.4702 19.99939454 l-0.43238 0 l0 -13.978 l0.43238 0 l0 13.978 z M85.1362 19.99939454 l-0.43238 0 l0 -13.978 l0.43238 0 l0 13.978 z M90.77637999999999 19.99939454 l-0.43238 0 l0 -13.958 l0.43238 0 l0 13.958 z M91.4443 19.99939454 l-0.43238 0 l0 -13.958 l0.43238 0 l0 13.958 z M92.1104 19.99939454 l-0.43238 0 l0 -13.958 l0.43238 0 l0 13.958 z M92.7782 19.99939454 l-0.43238 0 l0 -13.958 l0.43238 0 l0 13.958 z M101.74799999999999 6.042 l0.4324 -0.000019531 l0 13.958 l-0.53357 0 l-8.2024 -13.207 l0 0.38271 l0.0036718 -0.0018359 l7.965 12.826 l-0.50781 0 l-7.461 -12.013 l0 0.37535 l7.2272 11.638 l-0.50781 0 l-6.7194 -10.819 l0 0.37535 l6.4858 10.443 l-0.50967 0 l-5.9762 -9.6246 l0 0.37535 l5.7442 9.2494 l-0.50967 0 l-5.2346 -8.4306 l0 8.4306 l-0.43238 0 l0 -9.1261 l-0.0036718 -0.0073632 l0.0036718 -0.0018359 l0 -4.8225 l0.47471 0 l5.5934 9.0064 l0 -9.0065 l0.43238 0 l0 9.702 l0.2355 0.37718 l0 -10.079 l0.43055 0 l0 10.776 l0.2355 0.37718 l0 -11.154 l0.43238 0 l0 11.849 l0.23368 0.37902 l0 -12.228 l0.43238 0 l0 12.924 l0.2355 0.37718 l0 -13.301 z M115.54719999999999 6.52 l-8.6753 0 l0 -0.43238 l8.6753 0 l0 0.43238 z M115.54719999999999 7.188000000000001 l-8.6753 0 l0 -0.43238 l8.6753 0 l0 0.43238 z M115.54719999999999 7.853999999999999 l-8.6753 0 l0 -0.43238 l8.6753 0 l0 0.43238 z M115.54719999999999 8.522 l-8.6753 0 l0 -0.43238 l8.6753 0 l0 0.43238 z M106.87199999999999 9.188 l0 -0.43238 l8.6771 0 l0 0.43238 l-2.7893 0 l0 10.811 l-0.43055 0 l0 -10.811 l-0.23551 0 l0 10.811 l-0.43238 0 l0 -10.811 l-0.23367 0 l0 10.811 l-0.43238 0 l0 -10.811 l-0.23551 0 l0 10.811 l-0.43238 0 l0 -10.811 l-0.23367 0 l0 10.811 l-0.43238 0 l0 -10.811 l-2.7893 0 z M120.67237999999998 20.0012305 l-0.43238 0 l0 -13.982 l0.43238 0 l0 13.982 z M121.33839999999998 20.0012305 l-0.43238 0 l0 -13.982 l0.43238 0 l0 13.982 z M122.00639999999999 20.0012305 l-0.43238 0 l0 -13.982 l0.43238 0 l0 13.982 z M122.67239999999998 20.0012305 l-0.43238 0 l0 -13.982 l0.43238 0 l0 13.982 z M128.41119999999998 6.449999999999999 l-5.0708 0.000019531 l0 0.23551 l5.0708 0 l0 0.43238 l-5.0708 0 l0 0.23367 l5.0708 0 l0 0.43238 l-5.0708 0 l0 0.23551 l5.0708 0 l0 0.43238 l-5.0708 0 l0 0.23367 l5.0708 0 l0 0.43238 l-5.0708 0 l0 2.6863 l3.6891 0 l0 0.43238 l-3.6891 0 l0 0.23551 l3.6891 0 l0 0.43055 l-3.6891 0 l0 0.23551 l3.6891 0 l0 0.43238 l-3.6891 0 l0 0.23367 l3.6891 0 l0 0.43238 l-3.6891 0 l0 0.23551 l3.6891 0 l0 0.43238 l-3.6891 0 l0 1.9963 l5.0708 0 l0 0.43238 l-5.0708 0 l0 0.23367 l5.0708 0 l0 0.43238 l-5.0708 0 l0 0.23551 l5.0708 0 l0 0.43055 l-5.0708 0 l0 0.23551 l5.0708 0 l0 0.43238 l-5.0708 0 l0 0.23367 l5.0708 0 l0 0.43238 l-5.5032 0 l0 -13.98 l5.5032 0 l0 0.43055 z M136.85539999999997 12.8292 l0.3919 -0.18031 l3.4076 7.3506 l-0.47654 0 z M137.46439999999998 12.5588 l0.39192 -0.18031 l3.5326 7.621 l-0.47654 0 z M138.04779999999997 12.2422 l0.39376 -0.18215 l3.6836 7.9392 l-0.47654 0 z M134.04037999999997 19.99939454 l-0.43238 0 l0 -13.971 l0.43238 0 l0 13.971 z M134.70639999999997 19.99939454 l-0.43238 0 l0 -13.971 l0.43238 0 l0 13.971 z M135.37439999999998 19.99939454 l-0.43238 0 l0 -13.971 l0.43238 0 l0 13.971 z M136.04039999999998 19.99939454 l-0.43238 0 l0 -13.971 l0.43238 0 l0 13.971 z M140.27599999999998 14.428 l2.5852 5.5732 l-0.47654 0 l-3.7498 -8.0884 l0.2208 -0.16191 c0.39558 -0.27784 0.63662 -0.73414 0.63662 -1.218 c0 -0.81876 -0.66606 -1.483 -1.483 -1.483 l-1.3008 0 l0 4.0184 l3.2126 6.931 l-0.47654 0 l-2.736 -5.9026 l0 5.9025 l-0.43238 0 l0 -13.971 l1.7314 0 c2.4858 0 4.5078 2.022 4.5078 4.5078 c0 1.6063 -0.85556 3.0818 -2.2392 3.8914 z M139.17379999999997 12.0472 l0.091992 0.2024 c0.54278 -0.39926 0.87212 -1.0395 0.87212 -1.7166 c0 -1.1757 -0.95676 -2.1306 -2.1306 -2.1306 l-1.3008 0 l0 0.21527 l1.3008 0 c1.0561 0 1.9154 0.85924 1.9154 1.9154 c0 0.5943 -0.27966 1.1518 -0.74884 1.5143 z M139.45159999999998 12.6488 l0.090136 0.19867 c0.77278 -0.51334 1.2438 -1.3836 1.2438 -2.3146 c0 -1.5327 -1.2456 -2.7782 -2.7782 -2.7782 l-1.3008 0 l0 0.21527 l1.3008 0 c1.4131 0 2.563 1.15 2.563 2.563 c0 0.8427 -0.42502 1.6412 -1.1187 2.116 z M139.72759999999997 13.241399999999999 l0.092012 0.19691 c1.0028 -0.62558 1.6173 -1.7222 1.6173 -2.907 c0 -1.8878 -1.5382 -3.426 -3.4278 -3.426 l-1.3008 0 l0 0.21527 l1.3008 0 c1.77 0 3.2106 1.4407 3.2106 3.2106 c0 1.1003 -0.56854 2.1214 -1.4922 2.7102 z M140.00179999999997 13.8338 l0.093848 0.20056 c1.2291 -0.73598 1.989 -2.0608 1.989 -3.4978 c0 -2.2466 -1.8289 -4.0754 -4.0754 -4.0754 l-1.3008 0 l0 0.21344 l1.3008 0 c2.127 0 3.8584 1.7314 3.8584 3.8584 c0 1.3523 -0.71204 2.6016 -1.8657 3.3008 z M148.48837999999998 19.99939454 l-0.43238 0 l0 -13.958 l0.43238 0 l0 13.958 z M149.1563 19.99939454 l-0.43238 0 l0 -13.958 l0.43238 0 l0 13.958 z M149.8224 19.99939454 l-0.43238 0 l0 -13.958 l0.43238 0 l0 13.958 z M150.4902 19.99939454 l-0.43238 0 l0 -13.958 l0.43238 0 l0 13.958 z M159.45999999999998 6.042 l0.4324 -0.000019531 l0 13.958 l-0.53357 0 l-8.2024 -13.207 l0 0.38271 l0.0036718 -0.0018359 l7.965 12.826 l-0.50781 0 l-7.461 -12.013 l0 0.37535 l7.2272 11.638 l-0.50781 0 l-6.7194 -10.819 l0 0.37535 l6.4858 10.443 l-0.50967 0 l-5.9762 -9.6246 l0 0.37535 l5.7442 9.2494 l-0.50967 0 l-5.2346 -8.4306 l0 8.4306 l-0.43238 0 l0 -9.1261 l-0.0036718 -0.0073632 l0.0036718 -0.0018359 l0 -4.8225 l0.47471 0 l5.5934 9.0064 l0 -9.0065 l0.43238 0 l0 9.702 l0.2355 0.37718 l0 -10.079 l0.43055 0 l0 10.776 l0.2355 0.37718 l0 -11.154 l0.43238 0 l0 11.849 l0.23368 0.37902 l0 -12.228 l0.43238 0 l0 12.924 l0.2355 0.37718 l0 -13.301 z M170.91479999999999 6.016 l0.46918 0 l-5.8308 13.983 l-0.46918 0 z M171.58259999999999 6.016 l0.46918 0 l-5.8308 13.983 l-0.46734 0 z M172.25239999999997 6.016 l0.46734 0 l-5.8308 13.983 l-0.46734 0 z M172.92019999999997 6.016 l0.46918 0 l-5.8326 13.983 l-0.46734 0 z M179.44299999999998 19.99939454 l-5.5714 -13.54 l-0.11959 0.28886 l5.4518 13.251 l-0.46734 0 l-5.2198 -12.688 l-0.11959 0.28886 l5.1022 12.401 l-0.46734 0 l-4.8702 -11.836 l-0.11959 0.28704 l4.7506 11.549 l-0.46734 0 l-4.5188 -10.984 l-0.11959 0.28704 l4.4012 10.695 l-0.46734 0 l-1.0488 -2.5538 l-6.2778 0 l-1.0653 2.5538 l-0.46918 0 l5.8308 -13.983 l0.5667 0 l5.7534 13.983 l-0.46734 0 z M175.39099999999996 17.0132 l-0.092012 -0.22448 l-5.7332 0 l-0.093828 0.22448 l5.9191 0 z M175.12099999999998 16.3564 l-0.093848 -0.22448 l-5.1886 0 l-0.093828 0.22448 l5.3763 0 z M174.84999999999997 15.6994 l-0.093848 -0.22448 l-4.644 0 l-0.093828 0.22448 l4.8317 0 z M174.57979999999998 15.0426 l-0.091992 -0.22448 l-4.1012 0 l-0.093828 0.22448 l4.287 0 z M174.30939999999998 14.3858 l-1.8583 -4.517 l-1.8841 4.517 l3.7424 0 z M200.27079999999998 6.016 l0.46918 0 l-5.8308 13.983 l-0.46918 0 z M200.93859999999998 6.016 l0.46918 0 l-5.8308 13.983 l-0.46734 0 z M201.60839999999996 6.016 l0.46734 0 l-5.8308 13.983 l-0.46734 0 z M202.27619999999996 6.016 l0.46918 0 l-5.8326 13.983 l-0.46734 0 z M208.79899999999998 19.99939454 l-5.5714 -13.54 l-0.11959 0.28886 l5.4518 13.251 l-0.46734 0 l-5.2198 -12.688 l-0.11959 0.28886 l5.1022 12.401 l-0.46734 0 l-4.8702 -11.836 l-0.11959 0.28704 l4.7506 11.549 l-0.46734 0 l-4.5188 -10.984 l-0.11959 0.28704 l4.4012 10.695 l-0.46734 0 l-1.0488 -2.5538 l-6.2778 0 l-1.0653 2.5538 l-0.46918 0 l5.8308 -13.983 l0.5667 0 l5.7534 13.983 l-0.46734 0 z M204.74699999999996 17.0132 l-0.092012 -0.22448 l-5.7332 0 l-0.093828 0.22448 l5.9191 0 z M204.47699999999998 16.3564 l-0.093848 -0.22448 l-5.1886 0 l-0.093828 0.22448 l5.3763 0 z M204.20599999999996 15.6994 l-0.093848 -0.22448 l-4.644 0 l-0.093828 0.22448 l4.8317 0 z M203.93579999999997 15.0426 l-0.091992 -0.22448 l-4.1012 0 l-0.093828 0.22448 l4.287 0 z M203.66539999999998 14.3858 l-1.8583 -4.517 l-1.8841 4.517 l3.7424 0 z M218.88759999999996 6.021000000000001 l0.43975 0 l-2.4986 13.978 l-0.43975 0 z M218.24899999999997 6.021000000000001 l0.43791 0 l-2.5004 13.978 l-0.43791 0 z M217.60699999999997 6.021000000000001 l0.43975 0 l-2.4986 13.978 l-0.43975 0 z M216.96839999999997 6.021000000000001 l0.43791 0 l-2.4986 13.978 l-0.43975 0 z M228.87299999999996 6.021000000000001 l-0.000039062 0.003711 l0.46551 0 l2.4986 13.978 l-0.43975 0 l-1.5566 -8.701 l-3.7038 8.701 l-0.46918 0 l4.035 -9.4774 l-0.064394 -0.35696 l-4.1876 9.8344 l-0.46918 0 l4.517 -10.611 l-0.064394 -0.35696 l-4.6698 10.968 l-0.46918 0 l4.999 -11.744 l-0.062558 -0.3551 l-5.1518 12.099 l-0.46918 0 l5.4812 -12.878 l-0.064394 -0.35696 l-5.6338 13.233 l-0.8335 0 l-3.5658 -8.5226 l-1.5235 8.5226 l-0.43975 0 l2.4986 -13.978 l0.43975 0 l-0.0018359 0.0091992 l4.3754 10.631 z M222.97399999999996 19.87615 l0.093828 -0.22262 l-3.8712 -9.3212 l-0.064394 0.36062 z M223.30519999999996 19.09788 l0.10855 -0.2539 l-4.013 -9.6596 l-0.064394 0.36062 z M223.65099999999995 18.2865 l0.10855 -0.2539 l-4.1528 -9.9964 l-0.064394 0.36062 z M223.99699999999996 17.475 l0.1067 -0.25208 l-4.2796 -10.399 l-0.07543 0.42502 z M229.53099999999995 6.022 l0.43975 0 l2.4986 13.978 l-0.43791 0 z M230.17199999999997 6.022 l0.43975 0 l2.4986 13.978 l-0.43975 0 z M230.81199999999995 6.022 l0.43791 0 l2.5004 13.978 l-0.43975 0 z M231.88999999999996 6.022 l2.5004 13.978 l-0.43975 0 l-2.4986 -13.978 l0.43791 0 z M240.02837999999994 19.99939454 l-0.43238 0 l0 -13.985 l0.43238 0 l0 13.985 z M240.67419999999996 19.99939454 l-0.43238 0 l0 -13.985 l0.43238 0 l0 13.985 z M241.32379999999995 19.99939454 l-0.43238 0 l0 -13.985 l0.43238 0 l0 13.985 z M241.96959999999996 19.99939454 l-0.43238 0 l0 -13.985 l0.43238 0 l0 13.985 z M247.83159999999995 10.5826 c0 0.86476 -0.24104 1.702 -0.70286 2.4306 c0.45998 0.72494 0.70286 1.5621 0.70286 2.4306 c0 2.5116 -2.0442 4.5556 -4.5556 4.5556 l-1.0911 0 l0 -13.985 l0.43238 0 l0 0.012871 l0.65869 0 c2.5116 0 4.5556 2.0442 4.5556 4.5556 z M242.61719999999994 9.048 l0 3.069 l0.65869 0 c0.84636 0 1.5345 -0.68812 1.5345 -1.5345 s-0.68812 -1.5345 -1.5345 -1.5345 l-0.65869 0 z M242.61719999999994 12.5496 l-0.000019531 0.2153 l0.65869 0 c1.2033 0 2.1822 -0.97884 2.1822 -2.1822 s-0.97884 -2.1822 -2.1822 -2.1822 l-0.65869 0 l0 0.21527 l0.65869 0 c1.0856 0 1.9669 0.88316 1.9669 1.9669 c0 1.0856 -0.88316 1.9669 -1.9669 1.9669 l-0.65869 0 z M242.61719999999994 13.9092 l0 3.069 l0.65869 0 c0.84636 0 1.5345 -0.68812 1.5345 -1.5345 c0 -0.21528 -0.04416 -0.42134 -0.12879 -0.61638 c-0.2447 -0.5575 -0.79668 -0.91812 -1.4057 -0.91812 l-0.65869 0 z M243.27579999999995 17.4106 l-0.66057 0 l0 0.21527 l0.65869 0 c1.2033 0 2.1822 -0.97884 2.1822 -2.1822 c0 -0.3128 -0.064394 -0.61454 -0.19135 -0.89606 c-0.35326 -0.78198 -1.1334 -1.2861 -1.989 -1.2861 l-0.65869 0 l0 0.21527 l0.65869 0 c0.78014 0 1.4885 0.46182 1.8013 1.1776 c0.11039 0.2484 0.16559 0.5152 0.16559 0.78934 c0 1.0856 -0.88316 1.9669 -1.9669 1.9669 z M242.61719999999994 18.0583 l-0.000039062 0.21524 l0.65869 0 c1.5603 0 2.8298 -1.2695 2.8298 -2.8298 c0 -0.44342 -0.099356 -0.86844 -0.29806 -1.264 c-0.19504 -0.38822 -0.48208 -0.73046 -0.82796 -0.99356 l-0.22814 -0.17295 l0.22814 -0.17295 c0.71574 -0.54094 1.1261 -1.3634 1.1261 -2.2576 c0 -1.5603 -1.2695 -2.8298 -2.8298 -2.8298 l-0.65869 0 l0 0.21527 l0.65869 0 c1.4425 0 2.6146 1.1739 2.6146 2.6146 c0 1.104 -0.68812 2.0478 -1.6578 2.4306 c0.6219 0.24654 1.1426 0.72676 1.4278 1.3579 c0.15271 0.33856 0.23 0.69918 0.23 1.0727 c0 1.4425 -1.1739 2.6146 -2.6146 2.6146 l-0.65869 0 z M242.61699999999993 18.7041 l-0.000019531 0.21888 l0.65869 0 c1.9154 0 3.4756 -1.5603 3.4756 -3.4774 c0 -0.61086 -0.16191 -1.2125 -0.46734 -1.7387 c-0.11039 -0.19135 -0.23918 -0.37166 -0.38454 -0.5391 l-0.14904 -0.13432 l0.13984 -0.16191 c0.55566 -0.63478 0.8611 -1.448 0.8611 -2.2888 c0 -1.9172 -1.5584 -3.4774 -3.4756 -3.4774 l-0.65869 0 l0 0.21344 l0.65869 0 c1.7976 0 3.2604 1.4646 3.2604 3.2622 c0 0.9402 -0.39376 1.8105 -1.0892 2.4306 c0.30726 0.27414 0.56118 0.60534 0.74516 0.97148 c0.22814 0.4563 0.34406 0.94758 0.34406 1.4591 c0 1.7995 -1.4627 3.2622 -3.2604 3.2622 l-0.65869 0 z M247.40079999999995 15.4436 c0 -0.8298 -0.24468 -1.6283 -0.70836 -2.311 l-0.080958 -0.11959 l0.080958 -0.12143 c0.46734 -0.68998 0.71022 -1.4867 0.71022 -2.311 c0 -2.2742 -1.8491 -4.1232 -4.1232 -4.1232 l-0.65869 0 l0 0.21711 l0.65869 0 c2.1546 0 3.908 1.7535 3.908 3.908 c0 0.885 -0.30176 1.7406 -0.85006 2.4306 c0.11959 0.15088 0.22814 0.30912 0.32382 0.4747 c0.34222 0.59246 0.52438 1.2695 0.52438 1.9558 c0 2.1546 -1.7535 3.908 -3.908 3.908 l-0.65869 0 l0 0.21527 l0.65869 0 c2.2742 0 4.1232 -1.8491 4.1232 -4.1232 z M263.05299999999994 5.819000000000001 l0.43242 0 l0 8.9512 c0 2.885 -2.346 5.231 -5.231 5.231 s-5.231 -2.346 -5.231 -5.231 l0 -8.9512 l0.43238 0 l0 8.9512 c0 2.6458 2.1528 4.7986 4.7986 4.7986 s4.7986 -2.1528 4.7986 -4.7986 l0 -8.9512 z M258.25499999999994 19.35172 c-2.5262 0 -4.5832 -2.0552 -4.5832 -4.5814 l0 -8.9512 l0.43238 0 l0 8.9512 c0 2.2888 1.8602 4.1508 4.149 4.1508 s4.1508 -1.862 4.1508 -4.1508 l0 -8.9512 l0.43238 0 l0 8.9512 c0 2.5262 -2.0552 4.5814 -4.5814 4.5814 z M258.25499999999994 18.7041 c-2.1692 0 -3.9338 -1.7663 -3.9338 -3.9338 l0 -8.9512 l0.43238 0 l0 8.9512 c0 1.9301 1.5713 3.5014 3.5014 3.5014 s3.5014 -1.5713 3.5014 -3.5014 l0 -8.9512 l0.43238 0 l0 8.9512 c0 2.1692 -1.7645 3.9338 -3.9338 3.9338 z M258.25499999999994 18.0546 c-1.8123 0 -3.2862 -1.4738 -3.2862 -3.2842 l0 -8.9512 l0.43238 0 l0 8.9512 c0 1.5731 1.2806 2.8538 2.8538 2.8538 s2.8538 -1.2806 2.8538 -2.8538 l0 -8.9512 l0.43238 0 l0 8.9494 c0 1.8123 -1.4738 3.2862 -3.2862 3.2862 z M258.25499999999994 17.407 c-1.4554 0 -2.6384 -1.1831 -2.6384 -2.6366 l0 -8.9512 l0.43238 0 l0 8.9512 c0 1.2162 0.98988 2.206 2.206 2.206 s2.206 -0.98988 2.206 -2.206 l0 -8.9512 l0.43238 0 l0 8.9494 c0 1.4554 -1.1831 2.6384 -2.6384 2.6384 z M269.12621999999993 19.99939454 l-0.43238 0 l0 -13.978 l0.43238 0 l0 13.978 z M269.79229999999995 19.99939454 l-0.43238 0 l0 -13.978 l0.43238 0 l0 13.978 z M270.4583999999999 19.99939454 l-0.43238 0 l0 -13.978 l0.43238 0 l0 13.978 z M271.1261999999999 19.99939454 l-0.43238 0 l0 -13.978 l0.43238 0 l0 13.978 z M277.2698 17.3278 l-5.4774 0.000019531 l0 0.23551 l5.4775 0 l0 0.43055 l-5.4775 0 l0 0.23551 l5.4775 0 l0 0.43238 l-5.4775 0 l0 0.23367 l5.4775 0 l0 0.43238 l-5.4775 0 l0 0.23551 l5.4775 0 l0 0.43238 l-5.4775 0 l0 0.0036719 l-0.43238 0 l0 -13.978 l0.43238 0 l0 10.874 l5.4775 0 l0 0.43238 z M288.29079999999993 6.016 l0.46918 0 l-5.8308 13.983 l-0.46918 0 z M288.95859999999993 6.016 l0.46918 0 l-5.8308 13.983 l-0.46734 0 z M289.62839999999994 6.016 l0.46734 0 l-5.8308 13.983 l-0.46734 0 z M290.29619999999994 6.016 l0.46918 0 l-5.8326 13.983 l-0.46734 0 z M296.8189999999999 19.99939454 l-5.5714 -13.54 l-0.11959 0.28886 l5.4518 13.251 l-0.46734 0 l-5.2198 -12.688 l-0.11959 0.28886 l5.1022 12.401 l-0.46734 0 l-4.8702 -11.836 l-0.11959 0.28704 l4.7506 11.549 l-0.46734 0 l-4.5188 -10.984 l-0.11959 0.28704 l4.4012 10.695 l-0.46734 0 l-1.0488 -2.5538 l-6.2778 0 l-1.0653 2.5538 l-0.46918 0 l5.8308 -13.983 l0.5667 0 l5.7534 13.983 l-0.46734 0 z M292.76699999999994 17.0132 l-0.092012 -0.22448 l-5.7332 0 l-0.093828 0.22448 l5.9191 0 z M292.4969999999999 16.3564 l-0.093848 -0.22448 l-5.1886 0 l-0.093828 0.22448 l5.3763 0 z M292.22599999999994 15.6994 l-0.093848 -0.22448 l-4.644 0 l-0.093828 0.22448 l4.8317 0 z M291.9557999999999 15.0426 l-0.091992 -0.22448 l-4.1012 0 l-0.093828 0.22448 l4.287 0 z M291.6853999999999 14.3858 l-1.8583 -4.517 l-1.8841 4.517 l3.7424 0 z M302.92037999999997 19.99939454 l-0.43238 0 l0 -13.958 l0.43238 0 l0 13.958 z M303.58829999999995 19.99939454 l-0.43238 0 l0 -13.958 l0.43238 0 l0 13.958 z M304.2543999999999 19.99939454 l-0.43238 0 l0 -13.958 l0.43238 0 l0 13.958 z M304.9221999999999 19.99939454 l-0.43238 0 l0 -13.958 l0.43238 0 l0 13.958 z M313.89199999999994 6.042 l0.4324 -0.000019531 l0 13.958 l-0.53357 0 l-8.2024 -13.207 l0 0.38271 l0.0036718 -0.0018359 l7.965 12.826 l-0.50781 0 l-7.461 -12.013 l0 0.37535 l7.2272 11.638 l-0.50781 0 l-6.7194 -10.819 l0 0.37535 l6.4858 10.443 l-0.50967 0 l-5.9762 -9.6246 l0 0.37535 l5.7442 9.2494 l-0.50967 0 l-5.2346 -8.4306 l0 8.4306 l-0.43238 0 l0 -9.1261 l-0.0036718 -0.0073632 l0.0036718 -0.0018359 l0 -4.8225 l0.47471 0 l5.5934 9.0064 l0 -9.0065 l0.43238 0 l0 9.702 l0.2355 0.37718 l0 -10.079 l0.43055 0 l0 10.776 l0.2355 0.37718 l0 -11.154 l0.43238 0 l0 11.849 l0.23368 0.37902 l0 -12.228 l0.43238 0 l0 12.924 l0.2355 0.37718 l0 -13.301 z M322.02559999999994 13.0168 c0 -2.4656 2.0074 -4.4728 4.4728 -4.4728 l0.86293 0 l0 0.43238 l-0.86293 0 c-2.2282 0 -4.0404 1.8123 -4.0404 4.0404 s1.8123 4.0404 4.0404 4.0404 l0.86293 0 l0 0.43238 l-0.86293 0 c-2.4656 0 -4.4728 -2.0074 -4.4728 -4.4728 z M321.3982 13.0168 c0 -2.8114 2.2888 -5.1004 5.1002 -5.1004 l0.86293 0 l0 0.43238 l-0.86293 0 c-2.574 0 -4.668 2.0938 -4.668 4.668 s2.0938 4.668 4.668 4.668 l0.86293 0 l0 0.43238 l-0.86293 0 c-2.8132 0 -5.1002 -2.2888 -5.1002 -5.1002 z M320.77079999999995 13.0168 c0 -3.1574 2.5704 -5.7276 5.7276 -5.7276 l0.86293 0 l0 0.43238 l-0.86293 0 c-2.92 0 -5.2954 2.3754 -5.2954 5.2954 s2.3754 5.2954 5.2954 5.2954 l0.86293 0 l0 0.43238 l-0.86293 0 c-3.1592 0 -5.7276 -2.5704 -5.7276 -5.7278 z M320.1434 13.0168 c0 -3.505 2.8518 -6.3552 6.3552 -6.3552 l0.86293 0 l0 0.43238 l-0.86293 0 c-3.2658 0 -5.9228 2.6568 -5.9228 5.9228 s2.6568 5.9228 5.9228 5.9228 l0.86293 0 l0 0.43238 l-0.86293 0 c-3.5032 0 -6.3552 -2.85 -6.3552 -6.3552 z M326.49859999999995 6.034000000000001 l0.86294 0.000039062 l0 0.43238 l-0.86293 0 c-3.6118 0 -6.5502 2.9384 -6.5502 6.5502 s2.9384 6.5502 6.5502 6.5502 l0.86293 0 l0 0.43238 l-0.86293 0 c-3.8492 0 -6.9826 -3.1334 -6.9826 -6.9826 s3.1316 -6.9826 6.9826 -6.9826 z M332.99638 19.99939454 l-0.43238 0 l0 -13.978 l0.43238 0 l0 13.978 z M333.66429999999997 19.99939454 l-0.43238 0 l0 -13.978 l0.43238 0 l0 13.978 z M334.33039999999994 19.99939454 l-0.43238 0 l0 -13.978 l0.43238 0 l0 13.978 z M334.99819999999994 19.99939454 l-0.43238 0 l0 -13.978 l0.43238 0 l0 13.978 z M335.66419999999994 19.99939454 l-0.43238 0 l0 -13.978 l0.43238 0 l0 13.978 z M346.70279999999997 6.016 l0.46918 0 l-5.8308 13.983 l-0.46918 0 z M347.37059999999997 6.016 l0.46918 0 l-5.8308 13.983 l-0.46734 0 z M348.0404 6.016 l0.46734 0 l-5.8308 13.983 l-0.46734 0 z M348.7082 6.016 l0.46918 0 l-5.8326 13.983 l-0.46734 0 z M355.23099999999994 19.99939454 l-5.5714 -13.54 l-0.11959 0.28886 l5.4518 13.251 l-0.46734 0 l-5.2198 -12.688 l-0.11959 0.28886 l5.1022 12.401 l-0.46734 0 l-4.8702 -11.836 l-0.11959 0.28704 l4.7506 11.549 l-0.46734 0 l-4.5188 -10.984 l-0.11959 0.28704 l4.4012 10.695 l-0.46734 0 l-1.0488 -2.5538 l-6.2778 0 l-1.0653 2.5538 l-0.46918 0 l5.8308 -13.983 l0.5667 0 l5.7534 13.983 l-0.46734 0 z M351.179 17.0132 l-0.092012 -0.22448 l-5.7332 0 l-0.093828 0.22448 l5.9191 0 z M350.90899999999993 16.3564 l-0.093848 -0.22448 l-5.1886 0 l-0.093828 0.22448 l5.3763 0 z M350.638 15.6994 l-0.093848 -0.22448 l-4.644 0 l-0.093828 0.22448 l4.8317 0 z M350.36779999999993 15.0426 l-0.091992 -0.22448 l-4.1012 0 l-0.093828 0.22448 l4.287 0 z M350.09739999999994 14.3858 l-1.8583 -4.517 l-1.8841 4.517 l3.7424 0 z">
		</path>
	</g>
</svg>