<?xml version="1.0" encoding="UTF-8" standalone="no"?>
<svg
		viewBox="0 0 140 141"
		preserveAspectRatio="xMidYMid"
		class="css-g5ufxp"
		id="fffbbfaf"
		version="1.1"
		sodipodi:docname="logo_notext.svg"
		width="140"
		height="141"
		inkscape:version="1.2.2 (b0a8486541, 2022-12-01)"
		xmlns:inkscape="http://www.inkscape.org/namespaces/inkscape"
		xmlns:sodipodi="http://sodipodi.sourceforge.net/DTD/sodipodi-0.dtd"
		xmlns="http://www.w3.org/2000/svg"
		xmlns:svg="http://www.w3.org/2000/svg">
	<defs id="defs64" />
	<sodipodi:namedview
			id="namedview62"
			pagecolor="#ffffff"
			bordercolor="#999999"
			borderopacity="1"
			inkscape:showpageshadow="0"
			inkscape:pageopacity="0"
			inkscape:pagecheckerboard="0"
			inkscape:deskcolor="#d1d1d1"
			showgrid="false"
			inkscape:zoom="2.340351"
			inkscape:cx="130.74962"
			inkscape:cy="79.902545"
			inkscape:window-width="2560"
			inkscape:window-height="1371"
			inkscape:window-x="0"
			inkscape:window-y="0"
			inkscape:window-maximized="1"
			inkscape:current-layer="fffbbfaf" />
	<rect
			width="140"
			height="141"
			rx="10"
			ry="10"
			id="SvgjsG1016"
			fill="#ffcb2e"
			x="0"
			y="0" />
	<path
			d="M 67.545464,73.455376 C 64.52303,59.574568 89.933864,60.055919 83.530782,77.709172 79.165044,89.765325 53.866152,88.757847 56.597536,69.951591 59.015484,53.249845 83.273315,49.141574 91.836878,62.708944 98.508621,73.287463 91.971208,90.134734 78.717276,93.996733 66.06783,97.679625 41.093569,92.317603 45.70558,66.649302 48.101139,53.328204 60.60506,46.622879 72.426135,46.11914 78.415032,45.850479 77.306806,49.589342 75.29185,49.779643 60.112515,51.15653 52.131051,57.861855 50.384755,67.992606 46.892165,88.23172 68.385029,92.463128 77.855322,89.541441 87.280839,86.619755 93.460037,74.227776 88.612948,66.223923 82.624051,56.32825 64.881244,55.891676 61.254324,70.332194 58.735629,80.406974 75.885143,84.436886 79.478481,76.813636 84.851697,65.373164 69.526837,64.623152 71.23955,72.671782 71.687318,74.832263 68.09398,75.9181 67.545464,73.455376 Z M 99.829537,31.163688 c -1.388081,1.33211 -5.720236,6.313529 -7.085929,7.623251 -1.567188,1.522411 -7.97027,4.847088 -9.51507,6.302334 -1.029866,0.962701 0.671652,2.910492 1.869432,2.910492 3.582144,0.02239 7.052346,-3.089599 8.619534,-4.365738 A 37.478182,37.478182 0 0 0 97.41159,40.09666 c 1.455246,-1.623159 4.58962,-4.533651 4.70156,-6.671743 0.14553,-2.686608 -1.83585,-2.686608 -2.283613,-2.261229 z m 19.220443,39.60508 C 112.33346,69.582183 114.59469,70.321 108.54982,70.321 c -1.47764,0 -8.13818,-1.007478 -10.108364,1.791072 -0.828371,1.175391 -1.67913,3.828416 5.485154,3.335872 7.48892,-0.503739 8.38446,-0.738818 12.23526,-0.369409 2.86572,0.279855 5.2277,-3.906776 2.8993,-4.309767 z m -14.58604,40.601362 c 1.39927,-3.35826 -3.78364,-4.74634 -6.716524,-7.09712 -3.167959,-2.5187 -5.070973,-5.395606 -6.537413,-5.776209 -3.380649,-0.895536 -5.406799,0.369409 -4.287379,2.048539 1.735101,2.59705 9.604624,8.79864 11.082258,9.60462 1.477635,0.80599 5.451578,3.63812 6.459058,1.22017 z m -43.176034,4.81351 c 0.514933,-1.50003 7.164288,-13.95917 4.007524,-15.07859 -1.623159,-0.5821 -1.5448,-0.32463 -2.093316,0.0672 -1.175391,0.85075 -2.574666,2.5075 -3.078405,3.42542 -1.343304,2.47392 -1.891819,5.5971 -3.212735,8.32849 -0.783594,1.62315 -3.582144,7.43294 -1.757489,7.67922 4.097077,0.55971 5.563517,-2.74258 6.134421,-4.42171 z M 33.850922,90.873551 c -1.723907,0.817177 -3.201541,1.791072 -4.802312,2.608249 -1.914208,0.962701 -3.35826,2.552277 -5.115749,3.772445 -0.570904,0.402991 -1.253751,0.750012 -1.802266,1.231362 -2.574666,2.261233 0.917924,2.541083 3.514978,2.339583 2.597055,-0.20149 12.134513,-6.056057 15.179336,-8.787442 3.044822,-2.731385 -1.522412,-2.731385 -2.417948,-2.653025 -1.130614,0.100747 -3.548561,1.007478 -4.567233,1.488828 z m 4.365738,-22.60109 c -1.063449,-0.279855 -3.134376,-1.522411 -4.175437,-1.768683 -2.395558,-0.55971 -3.111987,-0.55971 -6.335917,-1.287333 -1.60077,-0.369409 -6.07845,-1.903014 -7.511308,0.257466 -0.761206,1.11942 0.660458,3.761252 3.638115,4.041107 2.977657,0.279855 7.511308,0.805982 11.429278,2.58586 4.90306,2.23884 5.709042,-3.111988 2.955269,-3.828417 z m -5.608294,-35.82144 c -0.783594,-0.582098 -4.287379,0.727623 -2.328394,3.91797 1.958985,3.190347 6.067257,8.507592 9.470293,11.630774 3.403037,3.123182 5.026196,3.839611 6.011286,1.903014 0.526127,-1.018672 -1.309722,-2.496306 -1.958985,-3.35826 -2.059733,-2.776161 -4.365738,-5.5971 -6.626967,-8.126989 -1.757489,-1.970179 -1.623159,-2.306005 -1.67913,-2.23884 0,0 -1.903014,-3.01124 -2.888103,-3.727669 z m 35.160982,6.727715 c 0.638069,-0.973896 0.167913,-8.003853 0.145525,-11.821076 -0.0112,-1.656741 0.839565,-4.936642 0.279855,-5.709042 -0.481351,-0.671652 -2.653026,-3.682891 -3.537368,0.604487 -1.029866,4.992613 -1.25375,7.903105 -0.985089,13.970362 0.05597,1.264944 1.645547,6.727714 4.097077,2.955269 z"
			id="SvgjsG1017"
			fill="#ffffff"
			style="stroke-width:1.11942" />
</svg>